<mxfile host="65bd71144e">
    <diagram name="Page-1" id="5f0bae14-7c28-e335-631c-24af17079c00">
        <mxGraphModel dx="1711" dy="801" grid="1" gridSize="10" guides="1" tooltips="1" connect="1" arrows="1" fold="1" page="1" pageScale="1" pageWidth="1100" pageHeight="850" background="none" math="0" shadow="0">
            <root>
                <mxCell id="0"/>
                <mxCell id="1" parent="0"/>
                <mxCell id="G2ULTDlsnIBk-afsIkmC-4" value="&lt;font style=&quot;font-size: 12px;&quot;&gt;&lt;span style=&quot;font-family: &amp;quot;Helvetica Neue&amp;quot;;&quot;&gt;Authentication&lt;/span&gt;&amp;nbsp;container&lt;/font&gt;" style="verticalAlign=top;align=left;spacingTop=8;spacingLeft=2;spacingRight=12;shape=cube;size=10;direction=south;fontStyle=4;html=1;rounded=0;shadow=0;comic=0;labelBackgroundColor=none;strokeWidth=1;fontFamily=Verdana;fontSize=12;fillColor=#f5f5f5;strokeColor=#666666;fontColor=#333333;" parent="1" vertex="1">
                    <mxGeometry x="600" y="80" width="440" height="160" as="geometry"/>
                </mxCell>
                <mxCell id="G2ULTDlsnIBk-afsIkmC-5" value="Quiz container" style="verticalAlign=top;align=left;spacingTop=8;spacingLeft=2;spacingRight=12;shape=cube;size=10;direction=south;fontStyle=4;html=1;rounded=0;shadow=0;comic=0;labelBackgroundColor=none;strokeWidth=1;fontFamily=Verdana;fontSize=12;fillColor=#f5f5f5;strokeColor=#666666;fontColor=#333333;" parent="1" vertex="1">
                    <mxGeometry x="600" y="320" width="440" height="240" as="geometry"/>
                </mxCell>
                <mxCell id="G2ULTDlsnIBk-afsIkmC-14" value="POST /authorize" style="text;html=1;align=left;verticalAlign=middle;resizable=0;points=[];autosize=1;strokeColor=none;fillColor=none;" parent="1" vertex="1">
                    <mxGeometry x="480" y="120" width="110" height="30" as="geometry"/>
                </mxCell>
                <mxCell id="G2ULTDlsnIBk-afsIkmC-27" value="" style="rounded=0;orthogonalLoop=1;jettySize=auto;html=1;endArrow=none;endFill=0;sketch=0;sourcePerimeterSpacing=0;targetPerimeterSpacing=0;" parent="1" target="G2ULTDlsnIBk-afsIkmC-29" edge="1" source="G2ULTDlsnIBk-afsIkmC-4">
                    <mxGeometry relative="1" as="geometry">
                        <mxPoint x="753" y="230" as="sourcePoint"/>
                        <mxPoint x="825" y="260" as="targetPoint"/>
                    </mxGeometry>
                </mxCell>
                <mxCell id="G2ULTDlsnIBk-afsIkmC-28" value="" style="rounded=0;orthogonalLoop=1;jettySize=auto;html=1;endArrow=halfCircle;endFill=0;entryX=0.5;entryY=0.5;endSize=6;strokeWidth=1;sketch=0;" parent="1" source="G2ULTDlsnIBk-afsIkmC-5" target="G2ULTDlsnIBk-afsIkmC-29" edge="1">
                    <mxGeometry relative="1" as="geometry">
                        <mxPoint x="753" y="310" as="sourcePoint"/>
                    </mxGeometry>
                </mxCell>
                <mxCell id="G2ULTDlsnIBk-afsIkmC-29" value="" style="ellipse;whiteSpace=wrap;html=1;align=center;aspect=fixed;resizable=0;points=[];outlineConnect=0;sketch=0;" parent="1" vertex="1">
                    <mxGeometry x="815" y="270" width="10" height="10" as="geometry"/>
                </mxCell>
                <mxCell id="G2ULTDlsnIBk-afsIkmC-30" value="introspect" style="text;html=1;align=center;verticalAlign=middle;resizable=0;points=[];autosize=1;strokeColor=none;fillColor=none;" parent="1" vertex="1">
                    <mxGeometry x="825" y="260" width="80" height="30" as="geometry"/>
                </mxCell>
                <mxCell id="G2ULTDlsnIBk-afsIkmC-35" style="edgeStyle=orthogonalEdgeStyle;rounded=0;orthogonalLoop=1;jettySize=auto;html=1;entryX=1;entryY=0.5;entryDx=0;entryDy=0;" parent="1" source="G2ULTDlsnIBk-afsIkmC-31" edge="1">
                    <mxGeometry relative="1" as="geometry">
                        <mxPoint x="820" y="155.0000000000001" as="targetPoint"/>
                    </mxGeometry>
                </mxCell>
                <mxCell id="G2ULTDlsnIBk-afsIkmC-31" value="Users&lt;br&gt;Storage" style="shape=datastore;whiteSpace=wrap;html=1;fillColor=#d5e8d4;strokeColor=#82b366;" parent="1" vertex="1">
                    <mxGeometry x="950" y="125" width="60" height="60" as="geometry"/>
                </mxCell>
                <mxCell id="G2ULTDlsnIBk-afsIkmC-38" style="edgeStyle=orthogonalEdgeStyle;rounded=0;orthogonalLoop=1;jettySize=auto;html=1;" parent="1" source="G2ULTDlsnIBk-afsIkmC-37" edge="1">
                    <mxGeometry relative="1" as="geometry">
                        <mxPoint x="820" y="440" as="targetPoint"/>
                    </mxGeometry>
                </mxCell>
                <mxCell id="G2ULTDlsnIBk-afsIkmC-37" value="Quiz Storage" style="shape=datastore;whiteSpace=wrap;html=1;fillColor=#d5e8d4;strokeColor=#82b366;" parent="1" vertex="1">
                    <mxGeometry x="950" y="410" width="60" height="60" as="geometry"/>
                </mxCell>
                <mxCell id="G2ULTDlsnIBk-afsIkmC-19" value="GET /questions/{id}" style="text;html=1;align=left;verticalAlign=middle;resizable=0;points=[];autosize=1;strokeColor=none;fillColor=none;" parent="1" vertex="1">
                    <mxGeometry x="480" y="405" width="130" height="30" as="geometry"/>
                </mxCell>
                <mxCell id="G2ULTDlsnIBk-afsIkmC-20" value="POST /answer" style="text;html=1;align=left;verticalAlign=middle;resizable=0;points=[];autosize=1;strokeColor=none;fillColor=none;" parent="1" vertex="1">
                    <mxGeometry x="480" y="460" width="100" height="30" as="geometry"/>
                </mxCell>
                <mxCell id="G2ULTDlsnIBk-afsIkmC-22" value="&lt;span style=&quot;color: rgb(0, 0, 0); font-family: Helvetica; font-size: 12px; font-style: normal; font-variant-ligatures: normal; font-variant-caps: normal; font-weight: 400; letter-spacing: normal; orphans: 2; text-indent: 0px; text-transform: none; widows: 2; word-spacing: 0px; -webkit-text-stroke-width: 0px; background-color: rgb(251, 251, 251); text-decoration-thickness: initial; text-decoration-style: initial; text-decoration-color: initial; float: none; display: inline !important;&quot;&gt;GET /progress&lt;/span&gt;" style="text;whiteSpace=wrap;html=1;align=left;" parent="1" vertex="1">
                    <mxGeometry x="480" y="350" width="110" height="30" as="geometry"/>
                </mxCell>
                <mxCell id="19" value="" style="group;rotation=-180;" vertex="1" connectable="0" parent="1">
                    <mxGeometry x="400" y="150" width="227.50000000000023" height="10" as="geometry"/>
                </mxCell>
                <mxCell id="12" value="" style="rounded=0;orthogonalLoop=1;jettySize=auto;html=1;endArrow=none;endFill=0;sketch=0;sourcePerimeterSpacing=0;targetPerimeterSpacing=0;fontSize=12;fontColor=#333333;exitX=1;exitY=0.132;exitDx=0;exitDy=0;exitPerimeter=0;" edge="1" parent="19" target="14">
                    <mxGeometry relative="1" as="geometry">
                        <mxPoint x="228" y="5" as="sourcePoint"/>
                    </mxGeometry>
                </mxCell>
                <mxCell id="13" value="" style="rounded=0;orthogonalLoop=1;jettySize=auto;html=1;endArrow=halfCircle;endFill=0;entryX=0.5;entryY=0.5;endSize=6;strokeWidth=1;sketch=0;fontSize=12;fontColor=#333333;exitX=0;exitY=0.3;exitDx=0;exitDy=0;" edge="1" parent="19" target="14">
                    <mxGeometry relative="1" as="geometry">
                        <mxPoint y="5" as="sourcePoint"/>
                    </mxGeometry>
                </mxCell>
                <mxCell id="14" value="" style="ellipse;whiteSpace=wrap;html=1;align=center;aspect=fixed;resizable=0;points=[];outlineConnect=0;sketch=0;fontSize=12;fontColor=#333333;rotation=-180;" vertex="1" parent="19">
                    <mxGeometry x="118" width="10" height="10" as="geometry"/>
                </mxCell>
                <mxCell id="21" value="" style="rounded=0;orthogonalLoop=1;jettySize=auto;html=1;endArrow=none;endFill=0;sketch=0;sourcePerimeterSpacing=0;targetPerimeterSpacing=0;fontSize=12;fontColor=#333333;exitX=0.083;exitY=0.154;exitDx=0;exitDy=0;exitPerimeter=0;" edge="1" parent="1" target="23">
                    <mxGeometry relative="1" as="geometry">
                        <mxPoint x="643.4775" y="384.6400000000001" as="sourcePoint"/>
                    </mxGeometry>
                </mxCell>
                <mxCell id="22" value="" style="rounded=0;orthogonalLoop=1;jettySize=auto;html=1;endArrow=halfCircle;endFill=0;entryX=0.5;entryY=0.5;endSize=6;strokeWidth=1;sketch=0;fontSize=12;fontColor=#333333;exitX=0;exitY=0.3;exitDx=0;exitDy=0;" edge="1" parent="1" target="23">
                    <mxGeometry relative="1" as="geometry">
                        <mxPoint x="400" y="385" as="sourcePoint"/>
                    </mxGeometry>
                </mxCell>
                <mxCell id="23" value="" style="ellipse;whiteSpace=wrap;html=1;align=center;aspect=fixed;resizable=0;points=[];outlineConnect=0;sketch=0;fontSize=12;fontColor=#333333;rotation=-180;" vertex="1" parent="1">
                    <mxGeometry x="518" y="380" width="10" height="10" as="geometry"/>
                </mxCell>
                <mxCell id="25" value="" style="rounded=0;orthogonalLoop=1;jettySize=auto;html=1;endArrow=none;endFill=0;sketch=0;sourcePerimeterSpacing=0;targetPerimeterSpacing=0;fontSize=12;fontColor=#333333;exitX=0.082;exitY=0.5;exitDx=0;exitDy=0;exitPerimeter=0;" edge="1" parent="1" target="27">
                    <mxGeometry relative="1" as="geometry">
                        <mxPoint x="643.2849999999999" y="440" as="sourcePoint"/>
                    </mxGeometry>
                </mxCell>
                <mxCell id="26" value="" style="rounded=0;orthogonalLoop=1;jettySize=auto;html=1;endArrow=halfCircle;endFill=0;entryX=0.5;entryY=0.5;endSize=6;strokeWidth=1;sketch=0;fontSize=12;fontColor=#333333;exitX=0;exitY=0.3;exitDx=0;exitDy=0;" edge="1" parent="1" target="27">
                    <mxGeometry relative="1" as="geometry">
                        <mxPoint x="400" y="440" as="sourcePoint"/>
                    </mxGeometry>
                </mxCell>
                <mxCell id="27" value="" style="ellipse;whiteSpace=wrap;html=1;align=center;aspect=fixed;resizable=0;points=[];outlineConnect=0;sketch=0;fontSize=12;fontColor=#333333;rotation=-180;" vertex="1" parent="1">
                    <mxGeometry x="518" y="435" width="10" height="10" as="geometry"/>
                </mxCell>
                <mxCell id="29" value="" style="rounded=0;orthogonalLoop=1;jettySize=auto;html=1;endArrow=none;endFill=0;sketch=0;sourcePerimeterSpacing=0;targetPerimeterSpacing=0;fontSize=12;fontColor=#333333;exitX=0.083;exitY=0.843;exitDx=0;exitDy=0;exitPerimeter=0;" edge="1" parent="1" target="31">
                    <mxGeometry relative="1" as="geometry">
                        <mxPoint x="643.4775" y="494.8800000000001" as="sourcePoint"/>
                    </mxGeometry>
                </mxCell>
                <mxCell id="30" value="" style="rounded=0;orthogonalLoop=1;jettySize=auto;html=1;endArrow=halfCircle;endFill=0;entryX=0.5;entryY=0.5;endSize=6;strokeWidth=1;sketch=0;fontSize=12;fontColor=#333333;exitX=0;exitY=0.3;exitDx=0;exitDy=0;" edge="1" parent="1" target="31">
                    <mxGeometry relative="1" as="geometry">
                        <mxPoint x="400" y="495" as="sourcePoint"/>
                    </mxGeometry>
                </mxCell>
                <mxCell id="31" value="" style="ellipse;whiteSpace=wrap;html=1;align=center;aspect=fixed;resizable=0;points=[];outlineConnect=0;sketch=0;fontSize=12;fontColor=#333333;rotation=-180;" vertex="1" parent="1">
                    <mxGeometry x="518" y="490" width="10" height="10" as="geometry"/>
                </mxCell>
                <mxCell id="34" value="«Component»&lt;br&gt;&lt;b&gt;Quiz_App&lt;/b&gt;" style="html=1;dropTarget=0;fontSize=12;fillColor=#f8cecc;strokeColor=#b85450;" vertex="1" parent="1">
                    <mxGeometry x="240" y="80" width="160" height="480" as="geometry"/>
                </mxCell>
                <mxCell id="35" value="" style="shape=module;jettyWidth=8;jettyHeight=4;fontSize=12;fontColor=#333333;" vertex="1" parent="34">
                    <mxGeometry x="1" width="20" height="20" relative="1" as="geometry">
                        <mxPoint x="-27" y="7" as="offset"/>
                    </mxGeometry>
                </mxCell>
                <mxCell id="38" value="«Component»&lt;br&gt;&lt;b&gt;Quiz_Microservice&lt;/b&gt;" style="html=1;dropTarget=0;fontSize=12;fillColor=#dae8fc;strokeColor=#6c8ebf;" vertex="1" parent="1">
                    <mxGeometry x="630" y="360" width="190" height="160" as="geometry"/>
                </mxCell>
                <mxCell id="39" value="" style="shape=module;jettyWidth=8;jettyHeight=4;fontSize=12;fontColor=#333333;" vertex="1" parent="38">
                    <mxGeometry x="1" width="20" height="20" relative="1" as="geometry">
                        <mxPoint x="-27" y="7" as="offset"/>
                    </mxGeometry>
                </mxCell>
                <mxCell id="44" value="«Component»&lt;br&gt;&lt;b&gt;Authentication_Server&lt;/b&gt;" style="html=1;dropTarget=0;fontSize=12;fillColor=#e1d5e7;strokeColor=#9673a6;" vertex="1" parent="1">
                    <mxGeometry x="627.5" y="122.5" width="192" height="65" as="geometry"/>
                </mxCell>
                <mxCell id="45" value="" style="shape=module;jettyWidth=8;jettyHeight=4;fontSize=12;fontColor=#333333;" vertex="1" parent="44">
                    <mxGeometry x="1" width="20" height="20" relative="1" as="geometry">
                        <mxPoint x="-27" y="7" as="offset"/>
                    </mxGeometry>
                </mxCell>
            </root>
        </mxGraphModel>
    </diagram>
</mxfile>